<?xml version="1.0" encoding="utf-8"?>
<!-- Generator: Adobe Illustrator 26.3.1, SVG Export Plug-In . SVG Version: 6.00 Build 0)  -->
<svg version="1.1" id="Layer_1" xmlns="http://www.w3.org/2000/svg" xmlns:xlink="http://www.w3.org/1999/xlink" x="0px" y="0px"
	 viewBox="0 0 600 600" style="enable-background:new 0 0 600 600;" xml:space="preserve">
<style type="text/css">
	.st0{fill:#E3E3E3;}
	.st1{fill:#FFFFFF;}
</style>
<g>
	<path class="st0" d="M472,179.5h-29v-30h-27v-27h-41.9v-58h-30v58H258v-58h-30v58h-42v27h-28v30h-30v98H73.9v30H128v98h58v72h72
		v-72h86v72h72v-72h56v-98h56.4v-30H472V179.5z M273.1,349.5h-56v-114h56V349.5z M387.1,349.5h-56v-114h56V349.5z"/>
	<rect x="128" y="477.5" class="st0" width="58" height="58"/>
	<rect x="416" y="477.5" class="st0" width="58" height="58"/>
	<rect x="526.1" y="122.5" class="st0" width="30" height="154.3"/>
	<rect x="43.9" y="122.5" class="st0" width="30" height="154.3"/>
</g>
<g>
	<path class="st1" d="M464,170.5h-29v-30h-27v-27h-41.9v-58h-30v58H250v-58h-30v58h-42v27h-28v30h-30v98H65.9v30H120v98h58v72h72
		v-72h86v72h72v-72h56v-98h56.4v-30H464V170.5z M265.1,340.5h-56v-114h56V340.5z M379.1,340.5h-56v-114h56V340.5z"/>
	<rect x="120" y="468.5" class="st1" width="58" height="58"/>
	<rect x="408" y="468.5" class="st1" width="58" height="58"/>
	<rect x="518.1" y="113.5" class="st1" width="30" height="154.3"/>
	<rect x="35.9" y="113.5" class="st1" width="30" height="154.3"/>
</g>
</svg>
